<svg id="visual" viewBox="0 0 900 300" width="900" height="300" xmlns="http://www.w3.org/2000/svg" xmlns:xlink="http://www.w3.org/1999/xlink" version="1.1"><rect x="0" y="0" width="900" height="300" fill="#000000"></rect><defs><linearGradient id="grad1_0" x1="66.7%" y1="100%" x2="100%" y2="0%"><stop offset="-10%" stop-color="#4158d0" stop-opacity="1"></stop><stop offset="110%" stop-color="#4158d0" stop-opacity="1"></stop></linearGradient></defs><defs><linearGradient id="grad1_1" x1="66.7%" y1="100%" x2="100%" y2="0%"><stop offset="-10%" stop-color="#4158d0" stop-opacity="1"></stop><stop offset="110%" stop-color="#1d44b8" stop-opacity="1"></stop></linearGradient></defs><defs><linearGradient id="grad1_2" x1="66.7%" y1="100%" x2="100%" y2="0%"><stop offset="-10%" stop-color="#0032a1" stop-opacity="1"></stop><stop offset="110%" stop-color="#1d44b8" stop-opacity="1"></stop></linearGradient></defs><defs><linearGradient id="grad1_3" x1="66.7%" y1="100%" x2="100%" y2="0%"><stop offset="-10%" stop-color="#0032a1" stop-opacity="1"></stop><stop offset="110%" stop-color="#00218a" stop-opacity="1"></stop></linearGradient></defs><defs><linearGradient id="grad1_4" x1="66.7%" y1="100%" x2="100%" y2="0%"><stop offset="-10%" stop-color="#001174" stop-opacity="1"></stop><stop offset="110%" stop-color="#00218a" stop-opacity="1"></stop></linearGradient></defs><defs><linearGradient id="grad1_5" x1="66.7%" y1="100%" x2="100%" y2="0%"><stop offset="-10%" stop-color="#001174" stop-opacity="1"></stop><stop offset="110%" stop-color="#000000" stop-opacity="1"></stop></linearGradient></defs><defs><linearGradient id="grad2_0" x1="0%" y1="100%" x2="33.3%" y2="0%"><stop offset="-10%" stop-color="#4158d0" stop-opacity="1"></stop><stop offset="110%" stop-color="#4158d0" stop-opacity="1"></stop></linearGradient></defs><defs><linearGradient id="grad2_1" x1="0%" y1="100%" x2="33.3%" y2="0%"><stop offset="-10%" stop-color="#1d44b8" stop-opacity="1"></stop><stop offset="110%" stop-color="#4158d0" stop-opacity="1"></stop></linearGradient></defs><defs><linearGradient id="grad2_2" x1="0%" y1="100%" x2="33.3%" y2="0%"><stop offset="-10%" stop-color="#1d44b8" stop-opacity="1"></stop><stop offset="110%" stop-color="#0032a1" stop-opacity="1"></stop></linearGradient></defs><defs><linearGradient id="grad2_3" x1="0%" y1="100%" x2="33.3%" y2="0%"><stop offset="-10%" stop-color="#00218a" stop-opacity="1"></stop><stop offset="110%" stop-color="#0032a1" stop-opacity="1"></stop></linearGradient></defs><defs><linearGradient id="grad2_4" x1="0%" y1="100%" x2="33.3%" y2="0%"><stop offset="-10%" stop-color="#00218a" stop-opacity="1"></stop><stop offset="110%" stop-color="#001174" stop-opacity="1"></stop></linearGradient></defs><defs><linearGradient id="grad2_5" x1="0%" y1="100%" x2="33.3%" y2="0%"><stop offset="-10%" stop-color="#000000" stop-opacity="1"></stop><stop offset="110%" stop-color="#001174" stop-opacity="1"></stop></linearGradient></defs><g transform="translate(900, 300)"><path d="M-300 0C-300.5 -23.8 -300.9 -47.6 -289.6 -66.1C-278.2 -84.6 -254.9 -97.8 -246 -118.5C-237 -139.1 -242.3 -167.3 -231.4 -184.6C-220.6 -201.8 -193.7 -208.1 -172.7 -216.6C-151.8 -225.1 -136.8 -235.8 -120.6 -250.5C-104.4 -265.1 -87.1 -283.6 -66.8 -292.5C-46.5 -301.4 -23.2 -300.7 0 -300L0 0Z" fill="#000769"></path><path d="M-250 0C-250.4 -19.8 -250.8 -39.7 -241.3 -55.1C-231.8 -70.5 -212.5 -81.5 -205 -98.7C-197.5 -115.9 -201.9 -139.4 -192.9 -153.8C-183.8 -168.2 -161.4 -173.4 -143.9 -180.5C-126.5 -187.6 -114 -196.5 -100.5 -208.7C-87 -220.9 -72.6 -236.3 -55.6 -243.7C-38.7 -251.1 -19.4 -250.6 0 -250L0 0Z" fill="#00197f"></path><path d="M-200 0C-200.3 -15.9 -200.6 -31.7 -193 -44.1C-185.4 -56.4 -170 -65.2 -164 -79C-158 -92.8 -161.5 -111.5 -154.3 -123C-147.1 -134.5 -129.1 -138.7 -115.1 -144.4C-101.2 -150.1 -91.2 -157.2 -80.4 -167C-69.6 -176.7 -58 -189.1 -44.5 -195C-31 -200.9 -15.5 -200.5 0 -200L0 0Z" fill="#002995"></path><path d="M-150 0C-150.2 -11.9 -150.5 -23.8 -144.8 -33C-139.1 -42.3 -127.5 -48.9 -123 -59.2C-118.5 -69.6 -121.1 -83.7 -115.7 -92.3C-110.3 -100.9 -96.8 -104 -86.4 -108.3C-75.9 -112.5 -68.4 -117.9 -60.3 -125.2C-52.2 -132.5 -43.5 -141.8 -33.4 -146.2C-23.2 -150.7 -11.6 -150.3 0 -150L0 0Z" fill="#003bad"></path><path d="M-100 0C-100.2 -7.9 -100.3 -15.9 -96.5 -22C-92.7 -28.2 -85 -32.6 -82 -39.5C-79 -46.4 -80.8 -55.8 -77.1 -61.5C-73.5 -67.3 -64.6 -69.4 -57.6 -72.2C-50.6 -75 -45.6 -78.6 -40.2 -83.5C-34.8 -88.4 -29 -94.5 -22.3 -97.5C-15.5 -100.5 -7.7 -100.2 0 -100L0 0Z" fill="#314ec4"></path><path d="M-50 0C-50.1 -4 -50.2 -7.9 -48.3 -11C-46.4 -14.1 -42.5 -16.3 -41 -19.7C-39.5 -23.2 -40.4 -27.9 -38.6 -30.8C-36.8 -33.6 -32.3 -34.7 -28.8 -36.1C-25.3 -37.5 -22.8 -39.3 -20.1 -41.7C-17.4 -44.2 -14.5 -47.3 -11.1 -48.7C-7.7 -50.2 -3.9 -50.1 0 -50L0 0Z" fill="#4158d0"></path></g><g transform="translate(0, 0)"><path d="M300 0C289.2 20 278.3 40.1 275.9 63C273.5 85.9 279.5 111.6 270.3 130.2C261.1 148.7 236.6 160.1 219.7 175.2C202.8 190.3 193.6 209.2 178.9 224.4C164.3 239.6 144.3 251.2 123.7 256.8C103.1 262.4 81.9 261.9 61.2 268.1C40.5 274.3 20.2 287.2 0 300L0 0Z" fill="#000769"></path><path d="M250 0C241 16.7 231.9 33.4 229.9 52.5C227.9 71.6 232.9 93 225.2 108.5C217.5 123.9 197.1 133.4 183.1 146C169 158.6 161.3 174.3 149.1 187C136.9 199.7 120.2 209.3 103 214C85.9 218.6 68.2 218.3 51 223.4C33.7 228.6 16.9 239.3 0 250L0 0Z" fill="#00197f"></path><path d="M200 0C192.8 13.4 185.5 26.7 183.9 42C182.3 57.2 186.3 74.4 180.2 86.8C174 99.1 157.7 106.7 146.5 116.8C135.2 126.9 129.1 139.4 119.3 149.6C109.5 159.7 96.2 167.5 82.4 171.2C68.7 174.9 54.6 174.6 40.8 178.7C27 182.9 13.5 191.4 0 200L0 0Z" fill="#002995"></path><path d="M150 0C144.6 10 139.2 20 138 31.5C136.7 42.9 139.8 55.8 135.1 65.1C130.5 74.4 118.3 80 109.8 87.6C101.4 95.2 96.8 104.6 89.5 112.2C82.1 119.8 72.1 125.6 61.8 128.4C51.5 131.2 40.9 131 30.6 134.1C20.2 137.2 10.1 143.6 0 150L0 0Z" fill="#003bad"></path><path d="M100 0C96.4 6.7 92.8 13.4 92 21C91.2 28.6 93.2 37.2 90.1 43.4C87 49.6 78.9 53.4 73.2 58.4C67.6 63.4 64.5 69.7 59.6 74.8C54.8 79.9 48.1 83.7 41.2 85.6C34.4 87.5 27.3 87.3 20.4 89.4C13.5 91.4 6.7 95.7 0 100L0 0Z" fill="#314ec4"></path><path d="M50 0C48.2 3.3 46.4 6.7 46 10.5C45.6 14.3 46.6 18.6 45 21.7C43.5 24.8 39.4 26.7 36.6 29.2C33.8 31.7 32.3 34.9 29.8 37.4C27.4 39.9 24 41.9 20.6 42.8C17.2 43.7 13.6 43.7 10.2 44.7C6.7 45.7 3.4 47.9 0 50L0 0Z" fill="#4158d0"></path></g></svg>