<svg id="visual" viewBox="0 0 900 300" width="900" height="300" xmlns="http://www.w3.org/2000/svg" xmlns:xlink="http://www.w3.org/1999/xlink" version="1.1"><rect x="0" y="0" width="900" height="300" fill="#000000"></rect><defs><linearGradient id="grad1_0" x1="66.7%" y1="0%" x2="100%" y2="100%"><stop offset="-10%" stop-color="#4158d0" stop-opacity="1"></stop><stop offset="110%" stop-color="#4158d0" stop-opacity="1"></stop></linearGradient></defs><defs><linearGradient id="grad1_1" x1="66.7%" y1="0%" x2="100%" y2="100%"><stop offset="-10%" stop-color="#4158d0" stop-opacity="1"></stop><stop offset="110%" stop-color="#1d44b8" stop-opacity="1"></stop></linearGradient></defs><defs><linearGradient id="grad1_2" x1="66.7%" y1="0%" x2="100%" y2="100%"><stop offset="-10%" stop-color="#0032a1" stop-opacity="1"></stop><stop offset="110%" stop-color="#1d44b8" stop-opacity="1"></stop></linearGradient></defs><defs><linearGradient id="grad1_3" x1="66.7%" y1="0%" x2="100%" y2="100%"><stop offset="-10%" stop-color="#0032a1" stop-opacity="1"></stop><stop offset="110%" stop-color="#00218a" stop-opacity="1"></stop></linearGradient></defs><defs><linearGradient id="grad1_4" x1="66.7%" y1="0%" x2="100%" y2="100%"><stop offset="-10%" stop-color="#001174" stop-opacity="1"></stop><stop offset="110%" stop-color="#00218a" stop-opacity="1"></stop></linearGradient></defs><defs><linearGradient id="grad1_5" x1="66.7%" y1="0%" x2="100%" y2="100%"><stop offset="-10%" stop-color="#001174" stop-opacity="1"></stop><stop offset="110%" stop-color="#000000" stop-opacity="1"></stop></linearGradient></defs><defs><linearGradient id="grad2_0" x1="0%" y1="0%" x2="33.3%" y2="100%"><stop offset="-10%" stop-color="#4158d0" stop-opacity="1"></stop><stop offset="110%" stop-color="#4158d0" stop-opacity="1"></stop></linearGradient></defs><defs><linearGradient id="grad2_1" x1="0%" y1="0%" x2="33.3%" y2="100%"><stop offset="-10%" stop-color="#1d44b8" stop-opacity="1"></stop><stop offset="110%" stop-color="#4158d0" stop-opacity="1"></stop></linearGradient></defs><defs><linearGradient id="grad2_2" x1="0%" y1="0%" x2="33.3%" y2="100%"><stop offset="-10%" stop-color="#1d44b8" stop-opacity="1"></stop><stop offset="110%" stop-color="#0032a1" stop-opacity="1"></stop></linearGradient></defs><defs><linearGradient id="grad2_3" x1="0%" y1="0%" x2="33.3%" y2="100%"><stop offset="-10%" stop-color="#00218a" stop-opacity="1"></stop><stop offset="110%" stop-color="#0032a1" stop-opacity="1"></stop></linearGradient></defs><defs><linearGradient id="grad2_4" x1="0%" y1="0%" x2="33.3%" y2="100%"><stop offset="-10%" stop-color="#00218a" stop-opacity="1"></stop><stop offset="110%" stop-color="#001174" stop-opacity="1"></stop></linearGradient></defs><defs><linearGradient id="grad2_5" x1="0%" y1="0%" x2="33.3%" y2="100%"><stop offset="-10%" stop-color="#000000" stop-opacity="1"></stop><stop offset="110%" stop-color="#001174" stop-opacity="1"></stop></linearGradient></defs><g transform="translate(900, 0)"><path d="M0 300C-23.8 300.5 -47.6 300.9 -66.1 289.6C-84.6 278.2 -97.8 254.9 -118.5 246C-139.1 237 -167.3 242.3 -184.6 231.4C-201.8 220.6 -208.1 193.7 -216.6 172.7C-225.1 151.8 -235.8 136.8 -250.5 120.6C-265.1 104.4 -283.6 87.1 -292.5 66.8C-301.4 46.5 -300.7 23.2 -300 0L0 0Z" fill="#000769"></path><path d="M0 250C-19.8 250.4 -39.7 250.8 -55.1 241.3C-70.5 231.8 -81.5 212.5 -98.7 205C-115.9 197.5 -139.4 201.9 -153.8 192.9C-168.2 183.8 -173.4 161.4 -180.5 143.9C-187.6 126.5 -196.5 114 -208.7 100.5C-220.9 87 -236.3 72.6 -243.7 55.6C-251.1 38.7 -250.6 19.4 -250 0L0 0Z" fill="#00197f"></path><path d="M0 200C-15.9 200.3 -31.7 200.6 -44.1 193C-56.4 185.4 -65.2 170 -79 164C-92.8 158 -111.5 161.5 -123 154.3C-134.5 147.1 -138.7 129.1 -144.4 115.1C-150.1 101.2 -157.2 91.2 -167 80.4C-176.7 69.6 -189.1 58 -195 44.5C-200.9 31 -200.5 15.5 -200 0L0 0Z" fill="#002995"></path><path d="M0 150C-11.9 150.2 -23.8 150.5 -33 144.8C-42.3 139.1 -48.9 127.5 -59.2 123C-69.6 118.5 -83.7 121.1 -92.3 115.7C-100.9 110.3 -104 96.8 -108.3 86.4C-112.5 75.9 -117.9 68.4 -125.2 60.3C-132.5 52.2 -141.8 43.5 -146.2 33.4C-150.7 23.2 -150.3 11.6 -150 0L0 0Z" fill="#003bad"></path><path d="M0 100C-7.9 100.2 -15.9 100.3 -22 96.5C-28.2 92.7 -32.6 85 -39.5 82C-46.4 79 -55.8 80.8 -61.5 77.1C-67.3 73.5 -69.4 64.6 -72.2 57.6C-75 50.6 -78.6 45.6 -83.5 40.2C-88.4 34.8 -94.5 29 -97.5 22.3C-100.5 15.5 -100.2 7.7 -100 0L0 0Z" fill="#314ec4"></path><path d="M0 50C-4 50.1 -7.9 50.2 -11 48.3C-14.1 46.4 -16.3 42.5 -19.7 41C-23.2 39.5 -27.9 40.4 -30.8 38.6C-33.6 36.8 -34.7 32.3 -36.1 28.8C-37.5 25.3 -39.3 22.8 -41.7 20.1C-44.2 17.4 -47.3 14.5 -48.7 11.1C-50.2 7.7 -50.1 3.9 -50 0L0 0Z" fill="#4158d0"></path></g><g transform="translate(0, 300)"><path d="M0 -300C20 -289.2 40.1 -278.3 63 -275.9C85.9 -273.5 111.6 -279.5 130.2 -270.3C148.7 -261.1 160.1 -236.6 175.2 -219.7C190.3 -202.8 209.2 -193.6 224.4 -178.9C239.6 -164.3 251.2 -144.3 256.8 -123.7C262.4 -103.1 261.9 -81.9 268.1 -61.2C274.3 -40.5 287.2 -20.2 300 0L0 0Z" fill="#000769"></path><path d="M0 -250C16.7 -241 33.4 -231.9 52.5 -229.9C71.6 -227.9 93 -232.9 108.5 -225.2C123.9 -217.5 133.4 -197.1 146 -183.1C158.6 -169 174.3 -161.3 187 -149.1C199.7 -136.9 209.3 -120.2 214 -103C218.6 -85.9 218.3 -68.2 223.4 -51C228.6 -33.7 239.3 -16.9 250 0L0 0Z" fill="#00197f"></path><path d="M0 -200C13.4 -192.8 26.7 -185.5 42 -183.9C57.2 -182.3 74.4 -186.3 86.8 -180.2C99.1 -174 106.7 -157.7 116.8 -146.5C126.9 -135.2 139.4 -129.1 149.6 -119.3C159.7 -109.5 167.5 -96.2 171.2 -82.4C174.9 -68.7 174.6 -54.6 178.7 -40.8C182.9 -27 191.4 -13.5 200 0L0 0Z" fill="#002995"></path><path d="M0 -150C10 -144.6 20 -139.2 31.5 -138C42.9 -136.7 55.8 -139.8 65.1 -135.1C74.4 -130.5 80 -118.3 87.6 -109.8C95.2 -101.4 104.6 -96.8 112.2 -89.5C119.8 -82.1 125.6 -72.1 128.4 -61.8C131.2 -51.5 131 -40.9 134.1 -30.6C137.2 -20.2 143.6 -10.1 150 0L0 0Z" fill="#003bad"></path><path d="M0 -100C6.7 -96.4 13.4 -92.8 21 -92C28.6 -91.2 37.2 -93.2 43.4 -90.1C49.6 -87 53.4 -78.9 58.4 -73.2C63.4 -67.6 69.7 -64.5 74.8 -59.6C79.9 -54.8 83.7 -48.1 85.6 -41.2C87.5 -34.4 87.3 -27.3 89.4 -20.4C91.4 -13.5 95.7 -6.7 100 0L0 0Z" fill="#314ec4"></path><path d="M0 -50C3.3 -48.2 6.7 -46.4 10.5 -46C14.3 -45.6 18.6 -46.6 21.7 -45C24.8 -43.5 26.7 -39.4 29.2 -36.6C31.7 -33.8 34.9 -32.3 37.4 -29.8C39.9 -27.4 41.9 -24 42.8 -20.6C43.7 -17.2 43.7 -13.6 44.7 -10.2C45.7 -6.7 47.9 -3.4 50 0L0 0Z" fill="#4158d0"></path></g></svg>