<svg id="visual" viewBox="0 0 900 250" width="900" height="250" xmlns="http://www.w3.org/2000/svg" xmlns:xlink="http://www.w3.org/1999/xlink" version="1.1"><rect x="0" y="0" width="900" height="250" fill="#000000"></rect><path d="M0 97L10 95.3C20 93.7 40 90.3 60 90.7C80 91 100 95 120 95.3C140 95.7 160 92.3 180 89.8C200 87.3 220 85.7 240 82.2C260 78.7 280 73.3 300 73C320 72.7 340 77.3 360 81.3C380 85.3 400 88.7 420 91.3C440 94 460 96 480 92C500 88 520 78 540 75.8C560 73.7 580 79.3 600 84.2C620 89 640 93 660 93.8C680 94.7 700 92.3 720 91.3C740 90.3 760 90.7 780 89.8C800 89 820 87 840 83.7C860 80.3 880 75.7 890 73.3L900 71L900 0L890 0C880 0 860 0 840 0C820 0 800 0 780 0C760 0 740 0 720 0C700 0 680 0 660 0C640 0 620 0 600 0C580 0 560 0 540 0C520 0 500 0 480 0C460 0 440 0 420 0C400 0 380 0 360 0C340 0 320 0 300 0C280 0 260 0 240 0C220 0 200 0 180 0C160 0 140 0 120 0C100 0 80 0 60 0C40 0 20 0 10 0L0 0Z" fill="#fa7268"></path><path d="M0 72L10 68.8C20 65.7 40 59.3 60 57.5C80 55.7 100 58.3 120 60C140 61.7 160 62.3 180 65.8C200 69.3 220 75.7 240 74.8C260 74 280 66 300 61C320 56 340 54 360 56.7C380 59.3 400 66.7 420 67.5C440 68.3 460 62.7 480 63.2C500 63.7 520 70.3 540 71.8C560 73.3 580 69.7 600 69.5C620 69.3 640 72.7 660 72.8C680 73 700 70 720 68.7C740 67.3 760 67.7 780 69.5C800 71.3 820 74.7 840 72.3C860 70 880 62 890 58L900 54L900 0L890 0C880 0 860 0 840 0C820 0 800 0 780 0C760 0 740 0 720 0C700 0 680 0 660 0C640 0 620 0 600 0C580 0 560 0 540 0C520 0 500 0 480 0C460 0 440 0 420 0C400 0 380 0 360 0C340 0 320 0 300 0C280 0 260 0 240 0C220 0 200 0 180 0C160 0 140 0 120 0C100 0 80 0 60 0C40 0 20 0 10 0L0 0Z" fill="#ef5f67"></path><path d="M0 39L10 42.7C20 46.3 40 53.7 60 53.3C80 53 100 45 120 42.5C140 40 160 43 180 47.3C200 51.7 220 57.3 240 60.7C260 64 280 65 300 61.8C320 58.7 340 51.3 360 50.2C380 49 400 54 420 53C440 52 460 45 480 45.3C500 45.7 520 53.3 540 54.7C560 56 580 51 600 49.5C620 48 640 50 660 51.5C680 53 700 54 720 51.5C740 49 760 43 780 44C800 45 820 53 840 56.7C860 60.3 880 59.7 890 59.3L900 59L900 0L890 0C880 0 860 0 840 0C820 0 800 0 780 0C760 0 740 0 720 0C700 0 680 0 660 0C640 0 620 0 600 0C580 0 560 0 540 0C520 0 500 0 480 0C460 0 440 0 420 0C400 0 380 0 360 0C340 0 320 0 300 0C280 0 260 0 240 0C220 0 200 0 180 0C160 0 140 0 120 0C100 0 80 0 60 0C40 0 20 0 10 0L0 0Z" fill="#e34c67"></path><path d="M0 45L10 41.8C20 38.7 40 32.3 60 31.2C80 30 100 34 120 36.5C140 39 160 40 180 41.3C200 42.7 220 44.3 240 42.8C260 41.3 280 36.7 300 32.8C320 29 340 26 360 24.5C380 23 400 23 420 24.2C440 25.3 460 27.7 480 29C500 30.3 520 30.7 540 30.5C560 30.3 580 29.7 600 31.7C620 33.7 640 38.3 660 38.5C680 38.7 700 34.3 720 33.7C740 33 760 36 780 37.3C800 38.7 820 38.3 840 37.2C860 36 880 34 890 33L900 32L900 0L890 0C880 0 860 0 840 0C820 0 800 0 780 0C760 0 740 0 720 0C700 0 680 0 660 0C640 0 620 0 600 0C580 0 560 0 540 0C520 0 500 0 480 0C460 0 440 0 420 0C400 0 380 0 360 0C340 0 320 0 300 0C280 0 260 0 240 0C220 0 200 0 180 0C160 0 140 0 120 0C100 0 80 0 60 0C40 0 20 0 10 0L0 0Z" fill="#d53867"></path><path d="M0 13L10 14.3C20 15.7 40 18.3 60 21C80 23.7 100 26.3 120 26C140 25.7 160 22.3 180 21.5C200 20.7 220 22.3 240 22C260 21.7 280 19.3 300 19.7C320 20 340 23 360 23C380 23 400 20 420 19.3C440 18.7 460 20.3 480 19.2C500 18 520 14 540 14C560 14 580 18 600 20.5C620 23 640 24 660 25.3C680 26.7 700 28.3 720 26.7C740 25 760 20 780 17.7C800 15.3 820 15.7 840 14.8C860 14 880 12 890 11L900 10L900 0L890 0C880 0 860 0 840 0C820 0 800 0 780 0C760 0 740 0 720 0C700 0 680 0 660 0C640 0 620 0 600 0C580 0 560 0 540 0C520 0 500 0 480 0C460 0 440 0 420 0C400 0 380 0 360 0C340 0 320 0 300 0C280 0 260 0 240 0C220 0 200 0 180 0C160 0 140 0 120 0C100 0 80 0 60 0C40 0 20 0 10 0L0 0Z" fill="#c62368"></path></svg>