<svg id="visual" viewBox="0 0 900 400" width="900" height="400" xmlns="http://www.w3.org/2000/svg" xmlns:xlink="http://www.w3.org/1999/xlink" version="1.1"><rect x="0" y="0" width="900" height="400" fill="#000000"></rect><path d="M0 206L16.7 203.7C33.3 201.3 66.7 196.7 100 186.5C133.3 176.3 166.7 160.7 200 154.7C233.3 148.7 266.7 152.3 300 158.8C333.3 165.3 366.7 174.7 400 165.5C433.3 156.3 466.7 128.7 500 116.8C533.3 105 566.7 109 600 121C633.3 133 666.7 153 700 171.7C733.3 190.3 766.7 207.7 800 211.5C833.3 215.3 866.7 205.7 883.3 200.8L900 196L900 0L883.3 0C866.7 0 833.3 0 800 0C766.7 0 733.3 0 700 0C666.7 0 633.3 0 600 0C566.7 0 533.3 0 500 0C466.7 0 433.3 0 400 0C366.7 0 333.3 0 300 0C266.7 0 233.3 0 200 0C166.7 0 133.3 0 100 0C66.7 0 33.3 0 16.7 0L0 0Z" fill="#4158d0"></path><path d="M0 124L16.7 138C33.3 152 66.7 180 100 174.2C133.3 168.3 166.7 128.7 200 118.5C233.3 108.3 266.7 127.7 300 132.3C333.3 137 366.7 127 400 125.3C433.3 123.7 466.7 130.3 500 144.3C533.3 158.3 566.7 179.7 600 171.3C633.3 163 666.7 125 700 123.8C733.3 122.7 766.7 158.3 800 163.7C833.3 169 866.7 144 883.3 131.5L900 119L900 0L883.3 0C866.7 0 833.3 0 800 0C766.7 0 733.3 0 700 0C666.7 0 633.3 0 600 0C566.7 0 533.3 0 500 0C466.7 0 433.3 0 400 0C366.7 0 333.3 0 300 0C266.7 0 233.3 0 200 0C166.7 0 133.3 0 100 0C66.7 0 33.3 0 16.7 0L0 0Z" fill="#6957d0"></path><path d="M0 70L16.7 81.8C33.3 93.7 66.7 117.3 100 117C133.3 116.7 166.7 92.3 200 80.8C233.3 69.3 266.7 70.7 300 78.2C333.3 85.7 366.7 99.3 400 105.8C433.3 112.3 466.7 111.7 500 115.5C533.3 119.3 566.7 127.7 600 131.5C633.3 135.3 666.7 134.7 700 129.3C733.3 124 766.7 114 800 120.5C833.3 127 866.7 150 883.3 161.5L900 173L900 0L883.3 0C866.7 0 833.3 0 800 0C766.7 0 733.3 0 700 0C666.7 0 633.3 0 600 0C566.7 0 533.3 0 500 0C466.7 0 433.3 0 400 0C366.7 0 333.3 0 300 0C266.7 0 233.3 0 200 0C166.7 0 133.3 0 100 0C66.7 0 33.3 0 16.7 0L0 0Z" fill="#8755ce"></path><path d="M0 132L16.7 132C33.3 132 66.7 132 100 125.3C133.3 118.7 166.7 105.3 200 98.3C233.3 91.3 266.7 90.7 300 90.7C333.3 90.7 366.7 91.3 400 85.3C433.3 79.3 466.7 66.7 500 70.3C533.3 74 566.7 94 600 104.8C633.3 115.7 666.7 117.3 700 117C733.3 116.7 766.7 114.3 800 108.5C833.3 102.7 866.7 93.3 883.3 88.7L900 84L900 0L883.3 0C866.7 0 833.3 0 800 0C766.7 0 733.3 0 700 0C666.7 0 633.3 0 600 0C566.7 0 533.3 0 500 0C466.7 0 433.3 0 400 0C366.7 0 333.3 0 300 0C266.7 0 233.3 0 200 0C166.7 0 133.3 0 100 0C66.7 0 33.3 0 16.7 0L0 0Z" fill="#a053ca"></path><path d="M0 105L16.7 101.8C33.3 98.7 66.7 92.3 100 90.2C133.3 88 166.7 90 200 87.3C233.3 84.7 266.7 77.3 300 75.7C333.3 74 366.7 78 400 75.2C433.3 72.3 466.7 62.7 500 65.8C533.3 69 566.7 85 600 86.7C633.3 88.3 666.7 75.7 700 76.7C733.3 77.7 766.7 92.3 800 91.8C833.3 91.3 866.7 75.7 883.3 67.8L900 60L900 0L883.3 0C866.7 0 833.3 0 800 0C766.7 0 733.3 0 700 0C666.7 0 633.3 0 600 0C566.7 0 533.3 0 500 0C466.7 0 433.3 0 400 0C366.7 0 333.3 0 300 0C266.7 0 233.3 0 200 0C166.7 0 133.3 0 100 0C66.7 0 33.3 0 16.7 0L0 0Z" fill="#b751c6"></path><path d="M0 38L16.7 41.3C33.3 44.7 66.7 51.3 100 51.2C133.3 51 166.7 44 200 42.7C233.3 41.3 266.7 45.7 300 44.8C333.3 44 366.7 38 400 40.3C433.3 42.7 466.7 53.3 500 51.8C533.3 50.3 566.7 36.7 600 34.3C633.3 32 666.7 41 700 46.7C733.3 52.3 766.7 54.7 800 55C833.3 55.3 866.7 53.7 883.3 52.8L900 52L900 0L883.3 0C866.7 0 833.3 0 800 0C766.7 0 733.3 0 700 0C666.7 0 633.3 0 600 0C566.7 0 533.3 0 500 0C466.7 0 433.3 0 400 0C366.7 0 333.3 0 300 0C266.7 0 233.3 0 200 0C166.7 0 133.3 0 100 0C66.7 0 33.3 0 16.7 0L0 0Z" fill="#cb50c0"></path></svg>