<svg id="visual" viewBox="0 0 900 200" width="900" height="200" xmlns="http://www.w3.org/2000/svg" xmlns:xlink="http://www.w3.org/1999/xlink" version="1.1"><rect x="0" y="0" width="900" height="200" fill="#000000"></rect><path d="M0 148L21.5 148C43 148 86 148 128.8 141.8C171.7 135.7 214.3 123.3 257.2 117.5C300 111.7 343 112.3 385.8 111.2C428.7 110 471.3 107 514.2 106.3C557 105.7 600 107.3 642.8 110.3C685.7 113.3 728.3 117.7 771.2 123.7C814 129.7 857 137.3 878.5 141.2L900 145L900 0L878.5 0C857 0 814 0 771.2 0C728.3 0 685.7 0 642.8 0C600 0 557 0 514.2 0C471.3 0 428.7 0 385.8 0C343 0 300 0 257.2 0C214.3 0 171.7 0 128.8 0C86 0 43 0 21.5 0L0 0Z" fill="#560090"></path><path d="M0 87L21.5 93.8C43 100.7 86 114.3 128.8 113.2C171.7 112 214.3 96 257.2 94.2C300 92.3 343 104.7 385.8 107.2C428.7 109.7 471.3 102.3 514.2 102.5C557 102.7 600 110.3 642.8 110.3C685.7 110.3 728.3 102.7 771.2 100.8C814 99 857 103 878.5 105L900 107L900 0L878.5 0C857 0 814 0 771.2 0C728.3 0 685.7 0 642.8 0C600 0 557 0 514.2 0C471.3 0 428.7 0 385.8 0C343 0 300 0 257.2 0C214.3 0 171.7 0 128.8 0C86 0 43 0 21.5 0L0 0Z" fill="#b70079"></path><path d="M0 86L21.5 85.3C43 84.7 86 83.3 128.8 83.8C171.7 84.3 214.3 86.7 257.2 90.7C300 94.7 343 100.3 385.8 100C428.7 99.7 471.3 93.3 514.2 88.8C557 84.3 600 81.7 642.8 79.3C685.7 77 728.3 75 771.2 78.5C814 82 857 91 878.5 95.5L900 100L900 0L878.5 0C857 0 814 0 771.2 0C728.3 0 685.7 0 642.8 0C600 0 557 0 514.2 0C471.3 0 428.7 0 385.8 0C343 0 300 0 257.2 0C214.3 0 171.7 0 128.8 0C86 0 43 0 21.5 0L0 0Z" fill="#ed2458"></path><path d="M0 37L21.5 38.2C43 39.3 86 41.7 128.8 42C171.7 42.3 214.3 40.7 257.2 42.2C300 43.7 343 48.3 385.8 53C428.7 57.7 471.3 62.3 514.2 66.2C557 70 600 73 642.8 73.2C685.7 73.3 728.3 70.7 771.2 66.2C814 61.7 857 55.3 878.5 52.2L900 49L900 0L878.5 0C857 0 814 0 771.2 0C728.3 0 685.7 0 642.8 0C600 0 557 0 514.2 0C471.3 0 428.7 0 385.8 0C343 0 300 0 257.2 0C214.3 0 171.7 0 128.8 0C86 0 43 0 21.5 0L0 0Z" fill="#ff7638"></path><path d="M0 31L21.5 33.3C43 35.7 86 40.3 128.8 38.8C171.7 37.3 214.3 29.7 257.2 30.2C300 30.7 343 39.3 385.8 38.7C428.7 38 471.3 28 514.2 23.5C557 19 600 20 642.8 21.5C685.7 23 728.3 25 771.2 27.3C814 29.7 857 32.3 878.5 33.7L900 35L900 0L878.5 0C857 0 814 0 771.2 0C728.3 0 685.7 0 642.8 0C600 0 557 0 514.2 0C471.3 0 428.7 0 385.8 0C343 0 300 0 257.2 0C214.3 0 171.7 0 128.8 0C86 0 43 0 21.5 0L0 0Z" fill="#fdbb2d"></path></svg>