<svg id="visual" viewBox="0 0 960 300" width="960" height="300" xmlns="http://www.w3.org/2000/svg" xmlns:xlink="http://www.w3.org/1999/xlink" version="1.1"><rect x="0" y="0" width="960" height="300" fill="#000000"></rect><path d="M0 203L22.8 198C45.7 193 91.3 183 137 177.8C182.7 172.7 228.3 172.3 274 179.8C319.7 187.3 365.3 202.7 411.2 207C457 211.3 503 204.7 548.8 203.7C594.7 202.7 640.3 207.3 686 212.3C731.7 217.3 777.3 222.7 823 217.7C868.7 212.7 914.3 197.3 937.2 189.7L960 182L960 0L937.2 0C914.3 0 868.7 0 823 0C777.3 0 731.7 0 686 0C640.3 0 594.7 0 548.8 0C503 0 457 0 411.2 0C365.3 0 319.7 0 274 0C228.3 0 182.7 0 137 0C91.3 0 45.7 0 22.8 0L0 0Z" fill="#d32222"></path><path d="M0 184L22.8 177.3C45.7 170.7 91.3 157.3 137 147.3C182.7 137.3 228.3 130.7 274 127.8C319.7 125 365.3 126 411.2 128.8C457 131.7 503 136.3 548.8 145.8C594.7 155.3 640.3 169.7 686 168.8C731.7 168 777.3 152 823 151C868.7 150 914.3 164 937.2 171L960 178L960 0L937.2 0C914.3 0 868.7 0 823 0C777.3 0 731.7 0 686 0C640.3 0 594.7 0 548.8 0C503 0 457 0 411.2 0C365.3 0 319.7 0 274 0C228.3 0 182.7 0 137 0C91.3 0 45.7 0 22.8 0L0 0Z" fill="#e22868"></path><path d="M0 134L22.8 137.3C45.7 140.7 91.3 147.3 137 142.3C182.7 137.3 228.3 120.7 274 116.3C319.7 112 365.3 120 411.2 123.7C457 127.3 503 126.7 548.8 128.5C594.7 130.3 640.3 134.7 686 131C731.7 127.3 777.3 115.7 823 116C868.7 116.3 914.3 128.7 937.2 134.8L960 141L960 0L937.2 0C914.3 0 868.7 0 823 0C777.3 0 731.7 0 686 0C640.3 0 594.7 0 548.8 0C503 0 457 0 411.2 0C365.3 0 319.7 0 274 0C228.3 0 182.7 0 137 0C91.3 0 45.7 0 22.8 0L0 0Z" fill="#d650a6"></path><path d="M0 95L22.8 91C45.7 87 91.3 79 137 73.5C182.7 68 228.3 65 274 64.2C319.7 63.3 365.3 64.7 411.2 65.7C457 66.7 503 67.3 548.8 75.7C594.7 84 640.3 100 686 100.3C731.7 100.7 777.3 85.3 823 76C868.7 66.7 914.3 63.3 937.2 61.7L960 60L960 0L937.2 0C914.3 0 868.7 0 823 0C777.3 0 731.7 0 686 0C640.3 0 594.7 0 548.8 0C503 0 457 0 411.2 0C365.3 0 319.7 0 274 0C228.3 0 182.7 0 137 0C91.3 0 45.7 0 22.8 0L0 0Z" fill="#b376d4"></path><path d="M0 64L22.8 64.5C45.7 65 91.3 66 137 64.3C182.7 62.7 228.3 58.3 274 57.3C319.7 56.3 365.3 58.7 411.2 58.3C457 58 503 55 548.8 50.5C594.7 46 640.3 40 686 42.8C731.7 45.7 777.3 57.3 823 57C868.7 56.7 914.3 44.3 937.2 38.2L960 32L960 0L937.2 0C914.3 0 868.7 0 823 0C777.3 0 731.7 0 686 0C640.3 0 594.7 0 548.8 0C503 0 457 0 411.2 0C365.3 0 319.7 0 274 0C228.3 0 182.7 0 137 0C91.3 0 45.7 0 22.8 0L0 0Z" fill="#8695eb"></path></svg>