<svg id="visual" viewBox="0 0 960 300" width="960" height="300" xmlns="http://www.w3.org/2000/svg" xmlns:xlink="http://www.w3.org/1999/xlink" version="1.1"><path d="M0 55L11.5 50.5C23 46 46 37 68.8 34C91.7 31 114.3 34 137.2 38.5C160 43 183 49 205.8 50.5C228.7 52 251.3 49 274.2 50.5C297 52 320 58 342.8 59.5C365.7 61 388.3 58 411.2 54C434 50 457 45 480 43C503 41 526 42 548.8 46C571.7 50 594.3 57 617.2 56.5C640 56 663 48 685.8 43.5C708.7 39 731.3 38 754.2 36C777 34 800 31 822.8 31.5C845.7 32 868.3 36 891.2 39.5C914 43 937 46 948.5 47.5L960 49L960 0L948.5 0C937 0 914 0 891.2 0C868.3 0 845.7 0 822.8 0C800 0 777 0 754.2 0C731.3 0 708.7 0 685.8 0C663 0 640 0 617.2 0C594.3 0 571.7 0 548.8 0C526 0 503 0 480 0C457 0 434 0 411.2 0C388.3 0 365.7 0 342.8 0C320 0 297 0 274.2 0C251.3 0 228.7 0 205.8 0C183 0 160 0 137.2 0C114.3 0 91.7 0 68.8 0C46 0 23 0 11.5 0L0 0Z" fill="#000000"></path><path d="M0 82L11.5 79.5C23 77 46 72 68.8 68C91.7 64 114.3 61 137.2 65C160 69 183 80 205.8 83C228.7 86 251.3 81 274.2 80.5C297 80 320 84 342.8 84C365.7 84 388.3 80 411.2 78.5C434 77 457 78 480 76C503 74 526 69 548.8 70.5C571.7 72 594.3 80 617.2 79.5C640 79 663 70 685.8 67.5C708.7 65 731.3 69 754.2 68.5C777 68 800 63 822.8 63C845.7 63 868.3 68 891.2 71C914 74 937 75 948.5 75.5L960 76L960 47L948.5 45.5C937 44 914 41 891.2 37.5C868.3 34 845.7 30 822.8 29.5C800 29 777 32 754.2 34C731.3 36 708.7 37 685.8 41.5C663 46 640 54 617.2 54.5C594.3 55 571.7 48 548.8 44C526 40 503 39 480 41C457 43 434 48 411.2 52C388.3 56 365.7 59 342.8 57.5C320 56 297 50 274.2 48.5C251.3 47 228.7 50 205.8 48.5C183 47 160 41 137.2 36.5C114.3 32 91.7 29 68.8 32C46 35 23 44 11.5 48.5L0 53Z" fill="#5f2700"></path><path d="M0 91L11.5 88.5C23 86 46 81 68.8 79C91.7 77 114.3 78 137.2 83.5C160 89 183 99 205.8 100C228.7 101 251.3 93 274.2 92C297 91 320 97 342.8 98.5C365.7 100 388.3 97 411.2 96.5C434 96 457 98 480 94.5C503 91 526 82 548.8 82.5C571.7 83 594.3 93 617.2 93.5C640 94 663 85 685.8 82C708.7 79 731.3 82 754.2 81C777 80 800 75 822.8 76.5C845.7 78 868.3 86 891.2 89C914 92 937 90 948.5 89L960 88L960 74L948.5 73.5C937 73 914 72 891.2 69C868.3 66 845.7 61 822.8 61C800 61 777 66 754.2 66.5C731.3 67 708.7 63 685.8 65.5C663 68 640 77 617.2 77.5C594.3 78 571.7 70 548.8 68.5C526 67 503 72 480 74C457 76 434 75 411.2 76.5C388.3 78 365.7 82 342.8 82C320 82 297 78 274.2 78.5C251.3 79 228.7 84 205.8 81C183 78 160 67 137.2 63C114.3 59 91.7 62 68.8 66C46 70 23 75 11.5 77.5L0 80Z" fill="#a05d10"></path><path d="M0 103L11.5 102C23 101 46 99 68.8 97C91.7 95 114.3 93 137.2 97C160 101 183 111 205.8 113C228.7 115 251.3 109 274.2 109C297 109 320 115 342.8 117.5C365.7 120 388.3 119 411.2 118C434 117 457 116 480 111C503 106 526 97 548.8 98C571.7 99 594.3 110 617.2 110.5C640 111 663 101 685.8 98.5C708.7 96 731.3 101 754.2 99.5C777 98 800 90 822.8 90.5C845.7 91 868.3 100 891.2 104C914 108 937 107 948.5 106.5L960 106L960 86L948.5 87C937 88 914 90 891.2 87C868.3 84 845.7 76 822.8 74.5C800 73 777 78 754.2 79C731.3 80 708.7 77 685.8 80C663 83 640 92 617.2 91.5C594.3 91 571.7 81 548.8 80.5C526 80 503 89 480 92.5C457 96 434 94 411.2 94.5C388.3 95 365.7 98 342.8 96.5C320 95 297 89 274.2 90C251.3 91 228.7 99 205.8 98C183 97 160 87 137.2 81.5C114.3 76 91.7 75 68.8 77C46 79 23 84 11.5 86.5L0 89Z" fill="#e69838"></path><path d="M0 118L11.5 118C23 118 46 118 68.8 118.5C91.7 119 114.3 120 137.2 123.5C160 127 183 133 205.8 133C228.7 133 251.3 127 274.2 126C297 125 320 129 342.8 130.5C365.7 132 388.3 131 411.2 131.5C434 132 457 134 480 131.5C503 129 526 122 548.8 123C571.7 124 594.3 133 617.2 132C640 131 663 120 685.8 118C708.7 116 731.3 123 754.2 122C777 121 800 112 822.8 112.5C845.7 113 868.3 123 891.2 128C914 133 937 133 948.5 133L960 133L960 104L948.5 104.5C937 105 914 106 891.2 102C868.3 98 845.7 89 822.8 88.5C800 88 777 96 754.2 97.5C731.3 99 708.7 94 685.8 96.5C663 99 640 109 617.2 108.5C594.3 108 571.7 97 548.8 96C526 95 503 104 480 109C457 114 434 115 411.2 116C388.3 117 365.7 118 342.8 115.5C320 113 297 107 274.2 107C251.3 107 228.7 113 205.8 111C183 109 160 99 137.2 95C114.3 91 91.7 93 68.8 95C46 97 23 99 11.5 100L0 101Z" fill="#f4a440"></path><path d="M0 136L11.5 139C23 142 46 148 68.8 149C91.7 150 114.3 146 137.2 149.5C160 153 183 164 205.8 163C228.7 162 251.3 149 274.2 145C297 141 320 146 342.8 150.5C365.7 155 388.3 159 411.2 159C434 159 457 155 480 152.5C503 150 526 149 548.8 151C571.7 153 594.3 158 617.2 154C640 150 663 137 685.8 137.5C708.7 138 731.3 152 754.2 154C777 156 800 146 822.8 143.5C845.7 141 868.3 146 891.2 148.5C914 151 937 151 948.5 151L960 151L960 131L948.5 131C937 131 914 131 891.2 126C868.3 121 845.7 111 822.8 110.5C800 110 777 119 754.2 120C731.3 121 708.7 114 685.8 116C663 118 640 129 617.2 130C594.3 131 571.7 122 548.8 121C526 120 503 127 480 129.5C457 132 434 130 411.2 129.5C388.3 129 365.7 130 342.8 128.5C320 127 297 123 274.2 124C251.3 125 228.7 131 205.8 131C183 131 160 125 137.2 121.5C114.3 118 91.7 117 68.8 116.5C46 116 23 116 11.5 116L0 116Z" fill="#e69838"></path><path d="M0 229L11.5 231.5C23 234 46 239 68.8 234.5C91.7 230 114.3 216 137.2 217C160 218 183 234 205.8 236C228.7 238 251.3 226 274.2 222.5C297 219 320 224 342.8 223C365.7 222 388.3 215 411.2 210.5C434 206 457 204 480 203C503 202 526 202 548.8 204.5C571.7 207 594.3 212 617.2 214.5C640 217 663 217 685.8 218C708.7 219 731.3 221 754.2 223.5C777 226 800 229 822.8 225C845.7 221 868.3 210 891.2 208.5C914 207 937 215 948.5 219L960 223L960 149L948.5 149C937 149 914 149 891.2 146.5C868.3 144 845.7 139 822.8 141.5C800 144 777 154 754.2 152C731.3 150 708.7 136 685.8 135.5C663 135 640 148 617.2 152C594.3 156 571.7 151 548.8 149C526 147 503 148 480 150.5C457 153 434 157 411.2 157C388.3 157 365.7 153 342.8 148.5C320 144 297 139 274.2 143C251.3 147 228.7 160 205.8 161C183 162 160 151 137.2 147.5C114.3 144 91.7 148 68.8 147C46 146 23 140 11.5 137L0 134Z" fill="#a05d10"></path><path d="M0 247L11.5 249.5C23 252 46 257 68.8 254C91.7 251 114.3 240 137.2 240.5C160 241 183 253 205.8 254C228.7 255 251.3 245 274.2 243C297 241 320 247 342.8 245C365.7 243 388.3 233 411.2 228C434 223 457 223 480 221.5C503 220 526 217 548.8 218C571.7 219 594.3 224 617.2 227.5C640 231 663 233 685.8 234.5C708.7 236 731.3 237 754.2 239C777 241 800 244 822.8 240C845.7 236 868.3 225 891.2 225.5C914 226 937 238 948.5 244L960 250L960 221L948.5 217C937 213 914 205 891.2 206.5C868.3 208 845.7 219 822.8 223C800 227 777 224 754.2 221.5C731.3 219 708.7 217 685.8 216C663 215 640 215 617.2 212.5C594.3 210 571.7 205 548.8 202.5C526 200 503 200 480 201C457 202 434 204 411.2 208.5C388.3 213 365.7 220 342.8 221C320 222 297 217 274.2 220.5C251.3 224 228.7 236 205.8 234C183 232 160 216 137.2 215C114.3 214 91.7 228 68.8 232.5C46 237 23 232 11.5 229.5L0 227Z" fill="#5f2700"></path><path d="M0 301L11.5 301C23 301 46 301 68.8 301C91.7 301 114.3 301 137.2 301C160 301 183 301 205.8 301C228.7 301 251.3 301 274.2 301C297 301 320 301 342.8 301C365.7 301 388.3 301 411.2 301C434 301 457 301 480 301C503 301 526 301 548.8 301C571.7 301 594.3 301 617.2 301C640 301 663 301 685.8 301C708.7 301 731.3 301 754.2 301C777 301 800 301 822.8 301C845.7 301 868.3 301 891.2 301C914 301 937 301 948.5 301L960 301L960 248L948.5 242C937 236 914 224 891.2 223.5C868.3 223 845.7 234 822.8 238C800 242 777 239 754.2 237C731.3 235 708.7 234 685.8 232.5C663 231 640 229 617.2 225.5C594.3 222 571.7 217 548.8 216C526 215 503 218 480 219.5C457 221 434 221 411.2 226C388.3 231 365.7 241 342.8 243C320 245 297 239 274.2 241C251.3 243 228.7 253 205.8 252C183 251 160 239 137.2 238.5C114.3 238 91.7 249 68.8 252C46 255 23 250 11.5 247.5L0 245Z" fill="#000000"></path></svg>