<svg id="visual" viewBox="0 0 900 250" width="900" height="250" xmlns="http://www.w3.org/2000/svg" xmlns:xlink="http://www.w3.org/1999/xlink" version="1.1"><path d="M0 61L50 65.7C100 70.3 200 79.7 300 78.8C400 78 500 67 600 64.5C700 62 800 68 850 71L900 74L900 0L850 0C800 0 700 0 600 0C500 0 400 0 300 0C200 0 100 0 50 0L0 0Z" fill="#c62368"></path><path d="M0 111L50 114.8C100 118.7 200 126.3 300 127.7C400 129 500 124 600 124.3C700 124.7 800 130.3 850 133.2L900 136L900 72L850 69C800 66 700 60 600 62.5C500 65 400 76 300 76.8C200 77.7 100 68.3 50 63.7L0 59Z" fill="#df4667"></path><path d="M0 146L50 148.2C100 150.3 200 154.7 300 155.2C400 155.7 500 152.3 600 152.7C700 153 800 157 850 159L900 161L900 134L850 131.2C800 128.3 700 122.7 600 122.3C500 122 400 127 300 125.7C200 124.3 100 116.7 50 112.8L0 109Z" fill="#f36567"></path><path d="M0 176L50 176C100 176 200 176 300 176C400 176 500 176 600 176.8C700 177.7 800 179.3 850 180.2L900 181L900 159L850 157C800 155 700 151 600 150.7C500 150.3 400 153.7 300 153.2C200 152.7 100 148.3 50 146.2L0 144Z" fill="#fa7268"></path><path d="M0 194L50 194C100 194 200 194 300 193.5C400 193 500 192 600 192.3C700 192.7 800 194.3 850 195.2L900 196L900 179L850 178.2C800 177.3 700 175.7 600 174.8C500 174 400 174 300 174C200 174 100 174 50 174L0 174Z" fill="#f36567"></path><path d="M0 209L50 209.8C100 210.7 200 212.3 300 212.7C400 213 500 212 600 213.7C700 215.3 800 219.7 850 221.8L900 224L900 194L850 193.2C800 192.3 700 190.7 600 190.3C500 190 400 191 300 191.5C200 192 100 192 50 192L0 192Z" fill="#df4667"></path><path d="M0 251L50 251C100 251 200 251 300 251C400 251 500 251 600 251C700 251 800 251 850 251L900 251L900 222L850 219.8C800 217.7 700 213.3 600 211.7C500 210 400 211 300 210.7C200 210.3 100 208.7 50 207.8L0 207Z" fill="#c62368"></path></svg>