<svg id="visual" viewBox="0 0 900 200" width="900" height="200" xmlns="http://www.w3.org/2000/svg" xmlns:xlink="http://www.w3.org/1999/xlink" version="1.1"><path d="M0 19L21.5 17.3C43 15.7 86 12.3 128.8 10.7C171.7 9 214.3 9 257.2 10C300 11 343 13 385.8 13.3C428.7 13.7 471.3 12.3 514.2 12.3C557 12.3 600 13.7 642.8 13.7C685.7 13.7 728.3 12.3 771.2 12.3C814 12.3 857 13.7 878.5 14.3L900 15L900 0L878.5 0C857 0 814 0 771.2 0C728.3 0 685.7 0 642.8 0C600 0 557 0 514.2 0C471.3 0 428.7 0 385.8 0C343 0 300 0 257.2 0C214.3 0 171.7 0 128.8 0C86 0 43 0 21.5 0L0 0Z" fill="#000000"></path><path d="M0 67L21.5 63.7C43 60.3 86 53.7 128.8 51.7C171.7 49.7 214.3 52.3 257.2 53.3C300 54.3 343 53.7 385.8 56C428.7 58.3 471.3 63.7 514.2 63C557 62.3 600 55.7 642.8 52.7C685.7 49.7 728.3 50.3 771.2 49C814 47.7 857 44.3 878.5 42.7L900 41L900 13L878.5 12.3C857 11.7 814 10.3 771.2 10.3C728.3 10.3 685.7 11.7 642.8 11.7C600 11.7 557 10.3 514.2 10.3C471.3 10.3 428.7 11.7 385.8 11.3C343 11 300 9 257.2 8C214.3 7 171.7 7 128.8 8.7C86 10.3 43 13.7 21.5 15.3L0 17Z" fill="#003568"></path><path d="M0 73L21.5 71C43 69 86 65 128.8 63.7C171.7 62.3 214.3 63.7 257.2 64.7C300 65.7 343 66.3 385.8 68.3C428.7 70.3 471.3 73.7 514.2 72.3C557 71 600 65 642.8 62C685.7 59 728.3 59 771.2 57C814 55 857 51 878.5 49L900 47L900 39L878.5 40.7C857 42.3 814 45.7 771.2 47C728.3 48.3 685.7 47.7 642.8 50.7C600 53.7 557 60.3 514.2 61C471.3 61.7 428.7 56.3 385.8 54C343 51.7 300 52.3 257.2 51.3C214.3 50.3 171.7 47.7 128.8 49.7C86 51.7 43 58.3 21.5 61.7L0 65Z" fill="#3e66a0"></path><path d="M0 97L21.5 94C43 91 86 85 128.8 81.7C171.7 78.3 214.3 77.7 257.2 79.7C300 81.7 343 86.3 385.8 88.3C428.7 90.3 471.3 89.7 514.2 87.3C557 85 600 81 642.8 78C685.7 75 728.3 73 771.2 72.3C814 71.7 857 72.3 878.5 72.7L900 73L900 45L878.5 47C857 49 814 53 771.2 55C728.3 57 685.7 57 642.8 60C600 63 557 69 514.2 70.3C471.3 71.7 428.7 68.3 385.8 66.3C343 64.3 300 63.7 257.2 62.7C214.3 61.7 171.7 60.3 128.8 61.7C86 63 43 67 21.5 69L0 71Z" fill="#7a9ddb"></path><path d="M0 117L21.5 112.3C43 107.7 86 98.3 128.8 95.3C171.7 92.3 214.3 95.7 257.2 98.3C300 101 343 103 385.8 105C428.7 107 471.3 109 514.2 107C557 105 600 99 642.8 95.3C685.7 91.7 728.3 90.3 771.2 90C814 89.7 857 90.3 878.5 90.7L900 91L900 71L878.5 70.7C857 70.3 814 69.7 771.2 70.3C728.3 71 685.7 73 642.8 76C600 79 557 83 514.2 85.3C471.3 87.7 428.7 88.3 385.8 86.3C343 84.3 300 79.7 257.2 77.7C214.3 75.7 171.7 76.3 128.8 79.7C86 83 43 89 21.5 92L0 95Z" fill="#86a8e7"></path><path d="M0 147L21.5 148.3C43 149.7 86 152.3 128.8 153.3C171.7 154.3 214.3 153.7 257.2 151.7C300 149.7 343 146.3 385.8 146.3C428.7 146.3 471.3 149.7 514.2 149.7C557 149.7 600 146.3 642.8 146.3C685.7 146.3 728.3 149.7 771.2 149.7C814 149.7 857 146.3 878.5 144.7L900 143L900 89L878.5 88.7C857 88.3 814 87.7 771.2 88C728.3 88.3 685.7 89.7 642.8 93.3C600 97 557 103 514.2 105C471.3 107 428.7 105 385.8 103C343 101 300 99 257.2 96.3C214.3 93.7 171.7 90.3 128.8 93.3C86 96.3 43 105.7 21.5 110.3L0 115Z" fill="#7a9ddb"></path><path d="M0 161L21.5 162C43 163 86 165 128.8 165.7C171.7 166.3 214.3 165.7 257.2 163.3C300 161 343 157 385.8 157.3C428.7 157.7 471.3 162.3 514.2 163C557 163.7 600 160.3 642.8 160.7C685.7 161 728.3 165 771.2 164.3C814 163.7 857 158.3 878.5 155.7L900 153L900 141L878.5 142.7C857 144.3 814 147.7 771.2 147.7C728.3 147.7 685.7 144.3 642.8 144.3C600 144.3 557 147.7 514.2 147.7C471.3 147.7 428.7 144.3 385.8 144.3C343 144.3 300 147.7 257.2 149.7C214.3 151.7 171.7 152.3 128.8 151.3C86 150.3 43 147.7 21.5 146.3L0 145Z" fill="#3e66a0"></path><path d="M0 177L21.5 177.3C43 177.7 86 178.3 128.8 178.3C171.7 178.3 214.3 177.7 257.2 176C300 174.3 343 171.7 385.8 172C428.7 172.3 471.3 175.7 514.2 176.3C557 177 600 175 642.8 175C685.7 175 728.3 177 771.2 176C814 175 857 171 878.5 169L900 167L900 151L878.5 153.7C857 156.3 814 161.7 771.2 162.3C728.3 163 685.7 159 642.8 158.7C600 158.3 557 161.7 514.2 161C471.3 160.3 428.7 155.7 385.8 155.3C343 155 300 159 257.2 161.3C214.3 163.7 171.7 164.3 128.8 163.7C86 163 43 161 21.5 160L0 159Z" fill="#003568"></path><path d="M0 201L21.5 201C43 201 86 201 128.8 201C171.7 201 214.3 201 257.2 201C300 201 343 201 385.8 201C428.7 201 471.3 201 514.2 201C557 201 600 201 642.8 201C685.7 201 728.3 201 771.2 201C814 201 857 201 878.5 201L900 201L900 165L878.5 167C857 169 814 173 771.2 174C728.3 175 685.7 173 642.8 173C600 173 557 175 514.2 174.3C471.3 173.7 428.7 170.3 385.8 170C343 169.7 300 172.3 257.2 174C214.3 175.7 171.7 176.3 128.8 176.3C86 176.3 43 175.7 21.5 175.3L0 175Z" fill="#000000"></path></svg>