<svg id="visual" viewBox="0 0 900 100" width="900" height="100" xmlns="http://www.w3.org/2000/svg" xmlns:xlink="http://www.w3.org/1999/xlink" version="1.1"><path d="M0 9L13.7 9.7C27.3 10.3 54.7 11.7 82 13.3C109.3 15 136.7 17 163.8 18.5C191 20 218 21 245.2 21.3C272.3 21.7 299.7 21.3 327 19.3C354.3 17.3 381.7 13.7 409 12.5C436.3 11.3 463.7 12.7 491 13.3C518.3 14 545.7 14 573 14.7C600.3 15.3 627.7 16.7 654.8 17.2C682 17.7 709 17.3 736.2 17C763.3 16.7 790.7 16.3 818 15.2C845.3 14 872.7 12 886.3 11L900 10L900 0L886.3 0C872.7 0 845.3 0 818 0C790.7 0 763.3 0 736.2 0C709 0 682 0 654.8 0C627.7 0 600.3 0 573 0C545.7 0 518.3 0 491 0C463.7 0 436.3 0 409 0C381.7 0 354.3 0 327 0C299.7 0 272.3 0 245.2 0C218 0 191 0 163.8 0C136.7 0 109.3 0 82 0C54.7 0 27.3 0 13.7 0L0 0Z" fill="#cb50c0"></path><path d="M0 42L13.7 40.7C27.3 39.3 54.7 36.7 82 37.2C109.3 37.7 136.7 41.3 163.8 43.5C191 45.7 218 46.3 245.2 44.8C272.3 43.3 299.7 39.7 327 37.5C354.3 35.3 381.7 34.7 409 33.7C436.3 32.7 463.7 31.3 491 35.7C518.3 40 545.7 50 573 51.8C600.3 53.7 627.7 47.3 654.8 45.7C682 44 709 47 736.2 45.2C763.3 43.3 790.7 36.7 818 34.2C845.3 31.7 872.7 33.3 886.3 34.2L900 35L900 8L886.3 9C872.7 10 845.3 12 818 13.2C790.7 14.3 763.3 14.7 736.2 15C709 15.3 682 15.7 654.8 15.2C627.7 14.7 600.3 13.3 573 12.7C545.7 12 518.3 12 491 11.3C463.7 10.7 436.3 9.3 409 10.5C381.7 11.7 354.3 15.3 327 17.3C299.7 19.3 272.3 19.7 245.2 19.3C218 19 191 18 163.8 16.5C136.7 15 109.3 13 82 11.3C54.7 9.7 27.3 8.3 13.7 7.7L0 7Z" fill="#b152c7"></path><path d="M0 76L13.7 75.3C27.3 74.7 54.7 73.3 82 72.2C109.3 71 136.7 70 163.8 69.5C191 69 218 69 245.2 68.7C272.3 68.3 299.7 67.7 327 67.7C354.3 67.7 381.7 68.3 409 67.8C436.3 67.3 463.7 65.7 491 67.5C518.3 69.3 545.7 74.7 573 75.8C600.3 77 627.7 74 654.8 73.2C682 72.3 709 73.7 736.2 71.8C763.3 70 790.7 65 818 63.7C845.3 62.3 872.7 64.7 886.3 65.8L900 67L900 33L886.3 32.2C872.7 31.3 845.3 29.7 818 32.2C790.7 34.7 763.3 41.3 736.2 43.2C709 45 682 42 654.8 43.7C627.7 45.3 600.3 51.7 573 49.8C545.7 48 518.3 38 491 33.7C463.7 29.3 436.3 30.7 409 31.7C381.7 32.7 354.3 33.3 327 35.5C299.7 37.7 272.3 41.3 245.2 42.8C218 44.3 191 43.7 163.8 41.5C136.7 39.3 109.3 35.7 82 35.2C54.7 34.7 27.3 37.3 13.7 38.7L0 40Z" fill="#9454cc"></path><path d="M0 91L13.7 91.2C27.3 91.3 54.7 91.7 82 92C109.3 92.3 136.7 92.7 163.8 92.7C191 92.7 218 92.3 245.2 92.3C272.3 92.3 299.7 92.7 327 92.3C354.3 92 381.7 91 409 90.2C436.3 89.3 463.7 88.7 491 89.3C518.3 90 545.7 92 573 92.2C600.3 92.3 627.7 90.7 654.8 89.2C682 87.7 709 86.3 736.2 85.5C763.3 84.7 790.7 84.3 818 84.5C845.3 84.7 872.7 85.3 886.3 85.7L900 86L900 65L886.3 63.8C872.7 62.7 845.3 60.3 818 61.7C790.7 63 763.3 68 736.2 69.8C709 71.7 682 70.3 654.8 71.2C627.7 72 600.3 75 573 73.8C545.7 72.7 518.3 67.3 491 65.5C463.7 63.7 436.3 65.3 409 65.8C381.7 66.3 354.3 65.7 327 65.7C299.7 65.7 272.3 66.3 245.2 66.7C218 67 191 67 163.8 67.5C136.7 68 109.3 69 82 70.2C54.7 71.3 27.3 72.7 13.7 73.3L0 74Z" fill="#7156cf"></path><path d="M0 101L13.7 101C27.3 101 54.7 101 82 101C109.3 101 136.7 101 163.8 101C191 101 218 101 245.2 101C272.3 101 299.7 101 327 101C354.3 101 381.7 101 409 101C436.3 101 463.7 101 491 101C518.3 101 545.7 101 573 101C600.3 101 627.7 101 654.8 101C682 101 709 101 736.2 101C763.3 101 790.7 101 818 101C845.3 101 872.7 101 886.3 101L900 101L900 84L886.3 83.7C872.7 83.3 845.3 82.7 818 82.5C790.7 82.3 763.3 82.7 736.2 83.5C709 84.3 682 85.7 654.8 87.2C627.7 88.7 600.3 90.3 573 90.2C545.7 90 518.3 88 491 87.3C463.7 86.7 436.3 87.3 409 88.2C381.7 89 354.3 90 327 90.3C299.7 90.7 272.3 90.3 245.2 90.3C218 90.3 191 90.7 163.8 90.7C136.7 90.7 109.3 90.3 82 90C54.7 89.7 27.3 89.3 13.7 89.2L0 89Z" fill="#4158d0"></path></svg>