<svg id="visual" viewBox="0 0 1440 900" width="1440" height="900" xmlns="http://www.w3.org/2000/svg" xmlns:xlink="http://www.w3.org/1999/xlink" version="1.1"><g stroke-width="1" stroke-linejoin="bevel"><path d="M667 456L661 578L800 568Z" fill="#4f626e" stroke="#4f626e"></path><path d="M800 568L838 474L667 456Z" fill="#839aa6" stroke="#839aa6"></path><path d="M838 474L806 337L667 456Z" fill="#718793" stroke="#718793"></path><path d="M972 587L920 427L838 474Z" fill="#839aa6" stroke="#839aa6"></path><path d="M838 474L920 427L806 337Z" fill="#202f3b" stroke="#202f3b"></path><path d="M806 337L633 324L667 456Z" fill="#12202b" stroke="#12202b"></path><path d="M667 456L464 567L661 578Z" fill="#607480" stroke="#607480"></path><path d="M661 578L761 739L800 568Z" fill="#95adb9" stroke="#95adb9"></path><path d="M800 568L972 587L838 474Z" fill="#3f505c" stroke="#3f505c"></path><path d="M464 567L630 744L661 578Z" fill="#3f505c" stroke="#3f505c"></path><path d="M661 578L630 744L761 739Z" fill="#4f626e" stroke="#4f626e"></path><path d="M968 719L972 587L800 568Z" fill="#4f626e" stroke="#4f626e"></path><path d="M468 446L464 567L667 456Z" fill="#607480" stroke="#607480"></path><path d="M504 331L468 446L667 456Z" fill="#00101c" stroke="#00101c"></path><path d="M633 324L504 331L667 456Z" fill="#718793" stroke="#718793"></path><path d="M761 739L968 719L800 568Z" fill="#3f505c" stroke="#3f505c"></path><path d="M1135 487L995 337L920 427Z" fill="#2f3f4b" stroke="#2f3f4b"></path><path d="M920 427L995 337L806 337Z" fill="#a8c1cd" stroke="#a8c1cd"></path><path d="M767 151L635 183L633 324Z" fill="#202f3b" stroke="#202f3b"></path><path d="M1135 487L920 427L972 587Z" fill="#202f3b" stroke="#202f3b"></path><path d="M464 567L479 757L630 744Z" fill="#607480" stroke="#607480"></path><path d="M630 744L666 900L761 739Z" fill="#3f505c" stroke="#3f505c"></path><path d="M767 151L633 324L806 337Z" fill="#00101c" stroke="#00101c"></path><path d="M633 324L635 183L504 331Z" fill="#718793" stroke="#718793"></path><path d="M993 186L767 151L806 337Z" fill="#839aa6" stroke="#839aa6"></path><path d="M504 331L359 459L468 446Z" fill="#12202b" stroke="#12202b"></path><path d="M468 446L359 459L464 567Z" fill="#95adb9" stroke="#95adb9"></path><path d="M464 567L325 724L479 757Z" fill="#a8c1cd" stroke="#a8c1cd"></path><path d="M340 264L359 459L504 331Z" fill="#2f3f4b" stroke="#2f3f4b"></path><path d="M469 900L666 900L630 744Z" fill="#202f3b" stroke="#202f3b"></path><path d="M761 739L829 900L968 719Z" fill="#202f3b" stroke="#202f3b"></path><path d="M666 900L829 900L761 739Z" fill="#12202b" stroke="#12202b"></path><path d="M1123 631L1135 487L972 587Z" fill="#a8c1cd" stroke="#a8c1cd"></path><path d="M968 719L1123 631L972 587Z" fill="#3f505c" stroke="#3f505c"></path><path d="M1096 783L1123 631L968 719Z" fill="#a8c1cd" stroke="#a8c1cd"></path><path d="M1147 322L993 186L995 337Z" fill="#2f3f4b" stroke="#2f3f4b"></path><path d="M995 337L993 186L806 337Z" fill="#2f3f4b" stroke="#2f3f4b"></path><path d="M623 0L468 163L635 183Z" fill="#839aa6" stroke="#839aa6"></path><path d="M635 183L468 163L504 331Z" fill="#12202b" stroke="#12202b"></path><path d="M185 563L287 590L359 459Z" fill="#718793" stroke="#718793"></path><path d="M359 459L287 590L464 567Z" fill="#202f3b" stroke="#202f3b"></path><path d="M829 900L967 900L968 719Z" fill="#2f3f4b" stroke="#2f3f4b"></path><path d="M287 590L325 724L464 567Z" fill="#a8c1cd" stroke="#a8c1cd"></path><path d="M479 757L469 900L630 744Z" fill="#95adb9" stroke="#95adb9"></path><path d="M967 900L1096 783L968 719Z" fill="#607480" stroke="#607480"></path><path d="M325 724L469 900L479 757Z" fill="#12202b" stroke="#12202b"></path><path d="M468 163L340 264L504 331Z" fill="#4f626e" stroke="#4f626e"></path><path d="M1135 487L1147 322L995 337Z" fill="#2f3f4b" stroke="#2f3f4b"></path><path d="M936 0L764 0L767 151Z" fill="#4f626e" stroke="#4f626e"></path><path d="M767 151L623 0L635 183Z" fill="#00101c" stroke="#00101c"></path><path d="M764 0L623 0L767 151Z" fill="#2f3f4b" stroke="#2f3f4b"></path><path d="M175 146L198 313L340 264Z" fill="#a8c1cd" stroke="#a8c1cd"></path><path d="M287 590L180 729L325 724Z" fill="#a8c1cd" stroke="#a8c1cd"></path><path d="M325 724L281 900L469 900Z" fill="#a8c1cd" stroke="#a8c1cd"></path><path d="M122 438L185 563L359 459Z" fill="#607480" stroke="#607480"></path><path d="M967 900L1118 900L1096 783Z" fill="#3f505c" stroke="#3f505c"></path><path d="M1271 789L1286 627L1123 631Z" fill="#00101c" stroke="#00101c"></path><path d="M1123 631L1286 627L1135 487Z" fill="#607480" stroke="#607480"></path><path d="M1135 487L1311 444L1147 322Z" fill="#12202b" stroke="#12202b"></path><path d="M1147 322L1098 110L993 186Z" fill="#839aa6" stroke="#839aa6"></path><path d="M993 186L936 0L767 151Z" fill="#202f3b" stroke="#202f3b"></path><path d="M1098 110L936 0L993 186Z" fill="#a8c1cd" stroke="#a8c1cd"></path><path d="M281 115L340 264L468 163Z" fill="#2f3f4b" stroke="#2f3f4b"></path><path d="M340 264L198 313L359 459Z" fill="#202f3b" stroke="#202f3b"></path><path d="M1271 789L1123 631L1096 783Z" fill="#12202b" stroke="#12202b"></path><path d="M1147 322L1254 171L1098 110Z" fill="#12202b" stroke="#12202b"></path><path d="M185 563L180 729L287 590Z" fill="#3f505c" stroke="#3f505c"></path><path d="M180 729L281 900L325 724Z" fill="#607480" stroke="#607480"></path><path d="M1286 627L1311 444L1135 487Z" fill="#4f626e" stroke="#4f626e"></path><path d="M623 0L443 0L468 163Z" fill="#4f626e" stroke="#4f626e"></path><path d="M443 0L281 115L468 163Z" fill="#a8c1cd" stroke="#a8c1cd"></path><path d="M1118 900L1271 789L1096 783Z" fill="#00101c" stroke="#00101c"></path><path d="M1440 592L1440 450L1311 444Z" fill="#00101c" stroke="#00101c"></path><path d="M0 413L122 438L0 263Z" fill="#00101c" stroke="#00101c"></path><path d="M198 313L122 438L359 459Z" fill="#12202b" stroke="#12202b"></path><path d="M185 563L0 568L180 729Z" fill="#839aa6" stroke="#839aa6"></path><path d="M1311 444L1311 324L1147 322Z" fill="#00101c" stroke="#00101c"></path><path d="M1311 324L1254 171L1147 322Z" fill="#607480" stroke="#607480"></path><path d="M1098 110L1153 0L936 0Z" fill="#2f3f4b" stroke="#2f3f4b"></path><path d="M281 115L175 146L340 264Z" fill="#3f505c" stroke="#3f505c"></path><path d="M199 0L175 146L281 115Z" fill="#12202b" stroke="#12202b"></path><path d="M1254 171L1153 0L1098 110Z" fill="#839aa6" stroke="#839aa6"></path><path d="M1118 900L1292 900L1271 789Z" fill="#00101c" stroke="#00101c"></path><path d="M1440 592L1311 444L1286 627Z" fill="#00101c" stroke="#00101c"></path><path d="M0 730L159 900L180 729Z" fill="#202f3b" stroke="#202f3b"></path><path d="M180 729L159 900L281 900Z" fill="#a8c1cd" stroke="#a8c1cd"></path><path d="M443 0L281 0L281 115Z" fill="#718793" stroke="#718793"></path><path d="M1440 592L1286 627L1440 745Z" fill="#839aa6" stroke="#839aa6"></path><path d="M1311 444L1440 450L1311 324Z" fill="#12202b" stroke="#12202b"></path><path d="M1311 324L1440 174L1254 171Z" fill="#607480" stroke="#607480"></path><path d="M1254 171L1290 0L1153 0Z" fill="#4f626e" stroke="#4f626e"></path><path d="M1440 745L1286 627L1271 789Z" fill="#839aa6" stroke="#839aa6"></path><path d="M122 438L0 568L185 563Z" fill="#12202b" stroke="#12202b"></path><path d="M0 413L0 568L122 438Z" fill="#718793" stroke="#718793"></path><path d="M0 263L122 438L198 313Z" fill="#a8c1cd" stroke="#a8c1cd"></path><path d="M281 0L199 0L281 115Z" fill="#607480" stroke="#607480"></path><path d="M175 146L0 263L198 313Z" fill="#12202b" stroke="#12202b"></path><path d="M1440 900L1440 745L1271 789Z" fill="#202f3b" stroke="#202f3b"></path><path d="M1440 450L1440 281L1311 324Z" fill="#839aa6" stroke="#839aa6"></path><path d="M0 568L0 730L180 729Z" fill="#00101c" stroke="#00101c"></path><path d="M1440 174L1290 0L1254 171Z" fill="#718793" stroke="#718793"></path><path d="M0 120L0 263L175 146Z" fill="#12202b" stroke="#12202b"></path><path d="M1440 281L1440 174L1311 324Z" fill="#607480" stroke="#607480"></path><path d="M1292 900L1440 900L1271 789Z" fill="#4f626e" stroke="#4f626e"></path><path d="M0 730L0 900L159 900Z" fill="#3f505c" stroke="#3f505c"></path><path d="M0 0L0 120L175 146Z" fill="#2f3f4b" stroke="#2f3f4b"></path><path d="M1440 174L1440 0L1290 0Z" fill="#2f3f4b" stroke="#2f3f4b"></path><path d="M199 0L0 0L175 146Z" fill="#2f3f4b" stroke="#2f3f4b"></path></g></svg>